<?xml version="1.0" standalone="no"?>
<!DOCTYPE svg PUBLIC "-//W3C//DTD SVG 20010904//EN"
 "http://www.w3.org/TR/2001/REC-SVG-20010904/DTD/svg10.dtd">
<svg version="1.0" xmlns="http://www.w3.org/2000/svg"
 width="154.000000pt" height="154.000000pt" viewBox="0 0 154.000000 154.000000"
 preserveAspectRatio="xMidYMid meet">
<metadata>
Created by potrace 1.14, written by Peter Selinger 2001-2017
</metadata>
<g transform="translate(0.000000,154.000000) scale(0.100000,-0.100000)"
fill="#000000" stroke="none">
<path d="M0 770 l0 -770 770 0 770 0 0 770 0 770 -770 0 -770 0 0 -770z m1038
523 c-148 -2 -388 -2 -535 0 -148 1 -27 2 267 2 294 0 415 -1 268 -2z m0
-1050 c-148 -2 -388 -2 -535 0 -148 1 -27 2 267 2 294 0 415 -1 268 -2z"/>
</g>
</svg>
